<svg width="289" height="153" viewBox="0 0 289 153" fill="none" xmlns="http://www.w3.org/2000/svg">
<mask id="path-1-outside-1_1_12" maskUnits="userSpaceOnUse" x="0.5" y="0" width="211" height="67" fill="black">
<rect fill="white" x="0.5" width="211" height="67"/>
<path d="M45.25 11V20H52V47H45.25V56H40.75V65H13.75V56H9.25V47H2.5V20H9.25V11H13.75V2H40.75V11H45.25ZM43 47V20H36.25V11H18.25V20H11.5V47H18.25V56H36.25V47H43Z"/>
<path d="M92.5352 29V20H101.535V29H99.2852V38H97.0352V47H94.7852V56H90.2852V65H72.2852V56H67.7852V47H65.5352V38H63.2852V29H61.0352V20H70.0352V29H72.2852V38H74.5352V47H76.7852V56H85.7852V47H88.0352V38H90.2852V29H92.5352Z"/>
<path d="M146.518 20V24.5H155.518V42.5H146.518V47H121.768V56H146.518V51.5H155.518V60.5H146.518V65H119.518V56H112.768V47H110.518V38H112.768V29H119.518V20H146.518ZM146.518 38V29H121.768V38H146.518Z"/>
<path d="M164.482 20H173.482V29H182.482V38H173.482V65H164.482V20ZM182.482 20H200.482V29H182.482V20ZM200.482 38V29H209.482V38H200.482Z"/>
</mask>
<path d="M45.25 11V20H52V47H45.25V56H40.75V65H13.75V56H9.25V47H2.5V20H9.25V11H13.75V2H40.75V11H45.25ZM43 47V20H36.25V11H18.25V20H11.5V47H18.25V56H36.25V47H43Z" fill="white"/>
<path d="M92.5352 29V20H101.535V29H99.2852V38H97.0352V47H94.7852V56H90.2852V65H72.2852V56H67.7852V47H65.5352V38H63.2852V29H61.0352V20H70.0352V29H72.2852V38H74.5352V47H76.7852V56H85.7852V47H88.0352V38H90.2852V29H92.5352Z" fill="white"/>
<path d="M146.518 20V24.5H155.518V42.5H146.518V47H121.768V56H146.518V51.5H155.518V60.5H146.518V65H119.518V56H112.768V47H110.518V38H112.768V29H119.518V20H146.518ZM146.518 38V29H121.768V38H146.518Z" fill="white"/>
<path d="M164.482 20H173.482V29H182.482V38H173.482V65H164.482V20ZM182.482 20H200.482V29H182.482V20ZM200.482 38V29H209.482V38H200.482Z" fill="white"/>
<path d="M45.25 11H47.25V9H45.25V11ZM45.25 20H43.25V22H45.25V20ZM52 20H54V18H52V20ZM52 47V49H54V47H52ZM45.25 47V45H43.25V47H45.25ZM45.25 56V58H47.25V56H45.25ZM40.75 56V54H38.75V56H40.75ZM40.75 65V67H42.75V65H40.75ZM13.75 65H11.75V67H13.75V65ZM13.75 56H15.75V54H13.75V56ZM9.25 56H7.25V58H9.25V56ZM9.25 47H11.25V45H9.25V47ZM2.5 47H0.5V49H2.5V47ZM2.5 20V18H0.5V20H2.5ZM9.25 20V22H11.25V20H9.25ZM9.25 11V9H7.25V11H9.25ZM13.75 11V13H15.75V11H13.75ZM13.75 2V0H11.75V2H13.75ZM40.75 2H42.75V0H40.75V2ZM40.75 11H38.75V13H40.75V11ZM43 47V49H45V47H43ZM43 20H45V18H43V20ZM36.25 20H34.25V22H36.25V20ZM36.25 11H38.25V9H36.25V11ZM18.25 11V9H16.25V11H18.25ZM18.25 20V22H20.25V20H18.25ZM11.5 20V18H9.5V20H11.5ZM11.5 47H9.5V49H11.5V47ZM18.25 47H20.25V45H18.25V47ZM18.25 56H16.25V58H18.25V56ZM36.25 56V58H38.25V56H36.25ZM36.25 47V45H34.25V47H36.25ZM92.5352 29V31H94.5352V29H92.5352ZM92.5352 20V18H90.5352V20H92.5352ZM101.535 20H103.535V18H101.535V20ZM101.535 29V31H103.535V29H101.535ZM99.2852 29V27H97.2852V29H99.2852ZM99.2852 38V40H101.285V38H99.2852ZM97.0352 38V36H95.0352V38H97.0352ZM97.0352 47V49H99.0352V47H97.0352ZM94.7852 47V45H92.7852V47H94.7852ZM94.7852 56V58H96.7852V56H94.7852ZM90.2852 56V54H88.2852V56H90.2852ZM90.2852 65V67H92.2852V65H90.2852ZM72.2852 65H70.2852V67H72.2852V65ZM72.2852 56H74.2852V54H72.2852V56ZM67.7852 56H65.7852V58H67.7852V56ZM67.7852 47H69.7852V45H67.7852V47ZM65.5352 47H63.5352V49H65.5352V47ZM65.5352 38H67.5352V36H65.5352V38ZM63.2852 38H61.2852V40H63.2852V38ZM63.2852 29H65.2852V27H63.2852V29ZM61.0352 29H59.0352V31H61.0352V29ZM61.0352 20V18H59.0352V20H61.0352ZM70.0352 20H72.0352V18H70.0352V20ZM70.0352 29H68.0352V31H70.0352V29ZM72.2852 29H74.2852V27H72.2852V29ZM72.2852 38H70.2852V40H72.2852V38ZM74.5352 38H76.5352V36H74.5352V38ZM74.5352 47H72.5352V49H74.5352V47ZM76.7852 47H78.7852V45H76.7852V47ZM76.7852 56H74.7852V58H76.7852V56ZM85.7852 56V58H87.7852V56H85.7852ZM85.7852 47V45H83.7852V47H85.7852ZM88.0352 47V49H90.0352V47H88.0352ZM88.0352 38V36H86.0352V38H88.0352ZM90.2852 38V40H92.2852V38H90.2852ZM90.2852 29V27H88.2852V29H90.2852ZM146.518 20H148.518V18H146.518V20ZM146.518 24.5H144.518V26.5H146.518V24.5ZM155.518 24.5H157.518V22.5H155.518V24.5ZM155.518 42.5V44.5H157.518V42.5H155.518ZM146.518 42.5V40.5H144.518V42.5H146.518ZM146.518 47V49H148.518V47H146.518ZM121.768 47V45H119.768V47H121.768ZM121.768 56H119.768V58H121.768V56ZM146.518 56V58H148.518V56H146.518ZM146.518 51.5V49.5H144.518V51.5H146.518ZM155.518 51.5H157.518V49.5H155.518V51.5ZM155.518 60.5V62.5H157.518V60.5H155.518ZM146.518 60.5V58.5H144.518V60.5H146.518ZM146.518 65V67H148.518V65H146.518ZM119.518 65H117.518V67H119.518V65ZM119.518 56H121.518V54H119.518V56ZM112.768 56H110.768V58H112.768V56ZM112.768 47H114.768V45H112.768V47ZM110.518 47H108.518V49H110.518V47ZM110.518 38V36H108.518V38H110.518ZM112.768 38V40H114.768V38H112.768ZM112.768 29V27H110.768V29H112.768ZM119.518 29V31H121.518V29H119.518ZM119.518 20V18H117.518V20H119.518ZM146.518 38V40H148.518V38H146.518ZM146.518 29H148.518V27H146.518V29ZM121.768 29V27H119.768V29H121.768ZM121.768 38H119.768V40H121.768V38ZM164.482 20V18H162.482V20H164.482ZM173.482 20H175.482V18H173.482V20ZM173.482 29H171.482V31H173.482V29ZM182.482 38V40H184.482V38H182.482ZM173.482 38V36H171.482V38H173.482ZM173.482 65V67H175.482V65H173.482ZM164.482 65H162.482V67H164.482V65ZM182.482 20V18H180.482V20H182.482ZM200.482 20H202.482V18H200.482V20ZM200.482 38H198.482V40H200.482V38ZM209.482 29H211.482V27H209.482V29ZM209.482 38V40H211.482V38H209.482ZM45.25 11H43.25V20H45.25H47.25V11H45.25ZM45.25 20V22H52V20V18H45.25V20ZM52 20H50V47H52H54V20H52ZM52 47V45H45.25V47V49H52V47ZM45.25 47H43.25V56H45.25H47.25V47H45.25ZM45.25 56V54H40.75V56V58H45.25V56ZM40.75 56H38.75V65H40.75H42.75V56H40.75ZM40.75 65V63H13.75V65V67H40.75V65ZM13.75 65H15.75V56H13.75H11.75V65H13.75ZM13.75 56V54H9.25V56V58H13.75V56ZM9.25 56H11.25V47H9.25H7.25V56H9.25ZM9.25 47V45H2.5V47V49H9.25V47ZM2.5 47H4.5V20H2.5H0.5V47H2.5ZM2.5 20V22H9.25V20V18H2.5V20ZM9.25 20H11.25V11H9.25H7.25V20H9.25ZM9.25 11V13H13.75V11V9H9.25V11ZM13.75 11H15.75V2H13.75H11.75V11H13.75ZM13.75 2V4H40.75V2V0H13.75V2ZM40.75 2H38.75V11H40.75H42.75V2H40.75ZM40.75 11V13H45.25V11V9H40.75V11ZM43 47H45V20H43H41V47H43ZM43 20V18H36.25V20V22H43V20ZM36.25 20H38.25V11H36.25H34.25V20H36.25ZM36.25 11V9H18.25V11V13H36.25V11ZM18.25 11H16.25V20H18.25H20.25V11H18.25ZM18.25 20V18H11.5V20V22H18.25V20ZM11.5 20H9.5V47H11.5H13.5V20H11.5ZM11.5 47V49H18.25V47V45H11.5V47ZM18.25 47H16.25V56H18.25H20.25V47H18.25ZM18.25 56V58H36.25V56V54H18.25V56ZM36.25 56H38.25V47H36.25H34.25V56H36.25ZM36.25 47V49H43V47V45H36.25V47ZM92.5352 29H94.5352V20H92.5352H90.5352V29H92.5352ZM92.5352 20V22H101.535V20V18H92.5352V20ZM101.535 20H99.5352V29H101.535H103.535V20H101.535ZM101.535 29V27H99.2852V29V31H101.535V29ZM99.2852 29H97.2852V38H99.2852H101.285V29H99.2852ZM99.2852 38V36H97.0352V38V40H99.2852V38ZM97.0352 38H95.0352V47H97.0352H99.0352V38H97.0352ZM97.0352 47V45H94.7852V47V49H97.0352V47ZM94.7852 47H92.7852V56H94.7852H96.7852V47H94.7852ZM94.7852 56V54H90.2852V56V58H94.7852V56ZM90.2852 56H88.2852V65H90.2852H92.2852V56H90.2852ZM90.2852 65V63H72.2852V65V67H90.2852V65ZM72.2852 65H74.2852V56H72.2852H70.2852V65H72.2852ZM72.2852 56V54H67.7852V56V58H72.2852V56ZM67.7852 56H69.7852V47H67.7852H65.7852V56H67.7852ZM67.7852 47V45H65.5352V47V49H67.7852V47ZM65.5352 47H67.5352V38H65.5352H63.5352V47H65.5352ZM65.5352 38V36H63.2852V38V40H65.5352V38ZM63.2852 38H65.2852V29H63.2852H61.2852V38H63.2852ZM63.2852 29V27H61.0352V29V31H63.2852V29ZM61.0352 29H63.0352V20H61.0352H59.0352V29H61.0352ZM61.0352 20V22H70.0352V20V18H61.0352V20ZM70.0352 20H68.0352V29H70.0352H72.0352V20H70.0352ZM70.0352 29V31H72.2852V29V27H70.0352V29ZM72.2852 29H70.2852V38H72.2852H74.2852V29H72.2852ZM72.2852 38V40H74.5352V38V36H72.2852V38ZM74.5352 38H72.5352V47H74.5352H76.5352V38H74.5352ZM74.5352 47V49H76.7852V47V45H74.5352V47ZM76.7852 47H74.7852V56H76.7852H78.7852V47H76.7852ZM76.7852 56V58H85.7852V56V54H76.7852V56ZM85.7852 56H87.7852V47H85.7852H83.7852V56H85.7852ZM85.7852 47V49H88.0352V47V45H85.7852V47ZM88.0352 47H90.0352V38H88.0352H86.0352V47H88.0352ZM88.0352 38V40H90.2852V38V36H88.0352V38ZM90.2852 38H92.2852V29H90.2852H88.2852V38H90.2852ZM90.2852 29V31H92.5352V29V27H90.2852V29ZM146.518 20H144.518V24.5H146.518H148.518V20H146.518ZM146.518 24.5V26.5H155.518V24.5V22.5H146.518V24.5ZM155.518 24.5H153.518V42.5H155.518H157.518V24.5H155.518ZM155.518 42.5V40.5H146.518V42.5V44.5H155.518V42.5ZM146.518 42.5H144.518V47H146.518H148.518V42.5H146.518ZM146.518 47V45H121.768V47V49H146.518V47ZM121.768 47H119.768V56H121.768H123.768V47H121.768ZM121.768 56V58H146.518V56V54H121.768V56ZM146.518 56H148.518V51.5H146.518H144.518V56H146.518ZM146.518 51.5V53.5H155.518V51.5V49.5H146.518V51.5ZM155.518 51.5H153.518V60.5H155.518H157.518V51.5H155.518ZM155.518 60.5V58.5H146.518V60.5V62.5H155.518V60.5ZM146.518 60.5H144.518V65H146.518H148.518V60.5H146.518ZM146.518 65V63H119.518V65V67H146.518V65ZM119.518 65H121.518V56H119.518H117.518V65H119.518ZM119.518 56V54H112.768V56V58H119.518V56ZM112.768 56H114.768V47H112.768H110.768V56H112.768ZM112.768 47V45H110.518V47V49H112.768V47ZM110.518 47H112.518V38H110.518H108.518V47H110.518ZM110.518 38V40H112.768V38V36H110.518V38ZM112.768 38H114.768V29H112.768H110.768V38H112.768ZM112.768 29V31H119.518V29V27H112.768V29ZM119.518 29H121.518V20H119.518H117.518V29H119.518ZM119.518 20V22H146.518V20V18H119.518V20ZM146.518 38H148.518V29H146.518H144.518V38H146.518ZM146.518 29V27H121.768V29V31H146.518V29ZM121.768 29H119.768V38H121.768H123.768V29H121.768ZM121.768 38V40H146.518V38V36H121.768V38ZM164.482 20V22H173.482V20V18H164.482V20ZM173.482 20H171.482V29H173.482H175.482V20H173.482ZM173.482 29V31H182.482V29V27H173.482V29ZM182.482 29H180.482V38H182.482H184.482V29H182.482ZM182.482 38V36H173.482V38V40H182.482V38ZM173.482 38H171.482V65H173.482H175.482V38H173.482ZM173.482 65V63H164.482V65V67H173.482V65ZM164.482 65H166.482V20H164.482H162.482V65H164.482ZM182.482 20V22H200.482V20V18H182.482V20ZM200.482 20H198.482V29H200.482H202.482V20H200.482ZM200.482 29V27H182.482V29V31H200.482V29ZM182.482 29H184.482V20H182.482H180.482V29H182.482ZM200.482 38H202.482V29H200.482H198.482V38H200.482ZM200.482 29V31H209.482V29V27H200.482V29ZM209.482 29H207.482V38H209.482H211.482V29H209.482ZM209.482 38V36H200.482V38V40H209.482V38Z" fill="#1E1E1E" mask="url(#path-1-outside-1_1_12)"/>
<rect x="117" y="55" width="3" height="5" fill="white"/>
<mask id="path-4-outside-2_1_12" maskUnits="userSpaceOnUse" x="94.3704" y="39.49" width="194" height="113" fill="black">
<rect fill="white" x="94.3704" y="39.49" width="194" height="113"/>
<path d="M108.792 106.479C106.066 106.479 103.833 105.87 102.093 104.652C100.411 103.376 99.193 101.723 98.439 99.693C97.685 97.605 97.366 95.285 97.482 92.733C97.598 90.181 98.091 87.6 98.961 84.99L104.442 68.46H97.83C97.192 68.46 96.757 68.17 96.525 67.59C96.293 67.01 96.322 66.14 96.612 64.98C96.96 63.82 97.424 62.95 98.004 62.37C98.584 61.79 99.193 61.5 99.831 61.5H106.791L112.446 44.274C112.794 43.114 113.229 42.36 113.751 42.012C114.331 41.664 115.201 41.49 116.361 41.49C118.217 41.49 119.377 41.78 119.841 42.36C120.305 42.882 120.334 43.723 119.928 44.883L114.36 61.5H125.322C125.96 61.5 126.395 61.79 126.627 62.37C126.917 62.892 126.888 63.762 126.54 64.98C126.25 66.082 125.815 66.952 125.235 67.59C124.655 68.17 124.046 68.46 123.408 68.46H112.098L106.356 85.773C105.544 88.209 105.08 90.326 104.964 92.124C104.906 93.922 105.08 95.401 105.486 96.561C105.95 97.721 106.617 98.591 107.487 99.171C108.357 99.693 109.343 99.954 110.445 99.954C111.257 99.954 111.866 100.302 112.272 100.998C112.678 101.636 112.823 102.39 112.707 103.26C112.591 104.072 112.214 104.797 111.576 105.435C110.938 106.131 110.01 106.479 108.792 106.479Z"/>
<path d="M109.116 106.479C108.304 106.479 107.695 106.131 107.289 105.435C106.883 104.797 106.738 104.072 106.854 103.26C106.912 102.39 107.26 101.636 107.898 100.998C108.536 100.302 109.464 99.954 110.682 99.954C112.074 99.954 113.669 99.258 115.467 97.866C117.207 96.474 119.266 94.299 121.644 91.341C124.022 88.325 126.835 84.41 130.083 79.596C133.331 74.724 137.13 68.837 141.48 61.935C142.002 61.123 142.669 60.775 143.481 60.891C144.351 61.007 145.047 61.384 145.569 62.022C146.091 62.66 146.12 63.356 145.656 64.11C140.726 72.462 136.463 79.393 132.867 84.903C129.329 90.355 126.226 94.676 123.558 97.866C120.89 100.998 118.425 103.231 116.163 104.565C113.843 105.841 111.494 106.479 109.116 106.479Z"/>
<path d="M135.475 150.153C132.401 150.153 129.878 149.283 127.906 147.543C125.992 145.861 125.035 143.657 125.035 140.931C125.035 138.901 125.412 136.871 126.166 134.841C126.978 132.869 128.138 130.868 129.646 128.838C131.154 126.808 133.039 124.72 135.301 122.574C137.621 120.486 140.289 118.282 143.305 115.962C144.813 114.86 146.234 113.816 147.568 112.83C148.96 111.844 150.352 110.858 151.744 109.872C153.136 108.944 154.586 107.987 156.094 107.001L162.097 88.47C160.299 91.312 158.443 93.835 156.529 96.039C154.673 98.243 152.759 100.128 150.787 101.694C148.815 103.202 146.843 104.333 144.871 105.087C142.899 105.899 140.898 106.305 138.868 106.305C136.2 106.305 134.112 105.667 132.604 104.391C131.154 103.057 130.371 101.114 130.255 98.562C130.139 95.952 130.69 92.791 131.908 89.079L140.608 62.979C141.014 61.819 141.478 61.065 142 60.717C142.58 60.369 143.421 60.195 144.523 60.195C146.321 60.195 147.452 60.485 147.916 61.065C148.438 61.587 148.496 62.428 148.09 63.588L138.868 91.08C138.346 92.53 137.998 93.893 137.824 95.169C137.708 96.445 137.911 97.46 138.433 98.214C139.013 98.968 140.086 99.345 141.652 99.345C143.682 99.345 145.886 98.475 148.264 96.735C150.642 94.995 153.078 92.559 155.572 89.427C158.124 86.295 160.618 82.612 163.054 78.378C165.49 74.086 167.752 69.417 169.84 64.371L170.275 62.979C170.681 61.819 171.145 61.065 171.667 60.717C172.247 60.369 173.088 60.195 174.19 60.195C175.988 60.195 177.119 60.485 177.583 61.065C178.105 61.587 178.163 62.428 177.757 63.588L157.225 126.75C155.891 130.926 154.47 134.493 152.962 137.451C151.512 140.409 149.946 142.816 148.264 144.672C146.582 146.586 144.668 147.978 142.522 148.848C140.434 149.718 138.085 150.153 135.475 150.153ZM136.78 143.454C138.52 143.454 140.144 142.874 141.652 141.714C143.16 140.554 144.581 138.727 145.915 136.233C147.249 133.739 148.554 130.462 149.83 126.402L153.049 116.571C152.237 117.093 151.425 117.644 150.613 118.224C149.801 118.804 148.989 119.384 148.177 119.964C147.365 120.544 146.553 121.153 145.741 121.791C143.421 123.705 141.42 125.474 139.738 127.098C138.114 128.78 136.78 130.346 135.736 131.796C134.75 133.246 133.996 134.609 133.474 135.885C133.01 137.219 132.778 138.495 132.778 139.713C132.778 140.409 132.923 141.047 133.213 141.627C133.503 142.207 133.938 142.642 134.518 142.932C135.156 143.28 135.91 143.454 136.78 143.454Z"/>
<path d="M161.578 110.655C160.824 111.061 160.157 111.061 159.577 110.655C158.939 110.307 158.504 109.756 158.272 109.002C158.04 108.248 158.04 107.465 158.272 106.653C158.446 105.841 158.939 105.232 159.751 104.826C163.347 102.796 166.653 100.708 169.669 98.562C172.685 96.358 175.498 94.038 178.108 91.602C180.718 89.166 183.154 86.556 185.416 83.772C187.736 80.988 189.969 78.001 192.115 74.811C194.319 71.563 196.494 68.083 198.64 64.371C199.22 63.501 199.887 63.066 200.641 63.066C201.395 63.066 201.975 63.414 202.381 64.11C202.787 64.806 202.7 65.676 202.12 66.72C199.858 71.012 197.596 74.956 195.334 78.552C193.072 82.148 190.723 85.454 188.287 88.47C185.909 91.486 183.386 94.27 180.718 96.822C177.992 99.374 175.063 101.81 171.931 104.13C168.799 106.392 165.348 108.567 161.578 110.655Z"/>
<path d="M222.13 106.479C220.622 106.479 219.259 106.392 218.041 106.218C216.881 106.044 215.75 105.87 214.648 105.696C213.546 105.58 212.357 105.522 211.081 105.522C209.863 105.58 208.413 105.841 206.731 106.305L207.166 103.26C208.384 102.738 209.747 102.274 211.255 101.868C212.821 101.462 214.387 101.114 215.953 100.824C217.519 100.534 218.969 100.331 220.303 100.215C221.695 100.041 222.855 99.954 223.783 99.954C224.305 99.954 224.653 100.302 224.827 100.998C225.001 101.636 225.001 102.39 224.827 103.26C224.653 104.072 224.334 104.797 223.87 105.435C223.406 106.131 222.826 106.479 222.13 106.479ZM168.712 150.153C167.61 150.153 166.45 149.892 165.232 149.37C163.956 148.848 162.883 147.949 162.013 146.673C161.143 145.397 160.708 143.628 160.708 141.366C160.708 139.916 160.969 138.292 161.491 136.494C162.013 134.754 162.796 132.811 163.84 130.665C164.826 128.519 166.073 126.228 167.581 123.792C169.089 121.356 170.829 118.746 172.801 115.962C174.715 113.236 176.832 110.365 179.152 107.349C181.472 104.391 183.966 101.317 186.634 98.127L198.118 62.979C198.524 61.819 198.988 61.065 199.51 60.717C200.09 60.369 200.931 60.195 202.033 60.195C203.831 60.195 204.962 60.485 205.426 61.065C205.948 61.587 206.006 62.428 205.6 63.588L200.206 80.031C203.628 75.217 206.731 71.331 209.515 68.373C212.299 65.415 214.909 63.269 217.345 61.935C219.781 60.543 222.159 59.847 224.479 59.847C227.379 59.847 229.67 60.804 231.352 62.718C233.034 64.632 233.875 67.329 233.875 70.809C233.875 74.057 233.353 77.363 232.309 80.727C231.265 84.091 229.786 87.31 227.872 90.384C226.016 93.458 223.812 96.213 221.26 98.649C218.766 101.027 216.011 102.941 212.995 104.391C209.979 105.783 206.847 106.479 203.599 106.479C201.453 106.479 199.481 106.131 197.683 105.435C195.943 104.739 194.319 103.84 192.811 102.738L182.98 133.014C181.53 137.48 180.109 140.96 178.717 143.454C177.267 145.948 175.73 147.688 174.106 148.674C172.482 149.66 170.684 150.153 168.712 150.153ZM168.103 141.627C168.103 142.323 168.248 142.816 168.538 143.106C168.77 143.454 169.147 143.628 169.669 143.628C170.075 143.628 170.481 143.454 170.887 143.106C171.293 142.816 171.728 142.236 172.192 141.366C172.598 140.496 173.12 139.22 173.758 137.538C174.396 135.914 175.15 133.739 176.02 131.013L182.284 111.699C180.776 113.961 179.384 116.136 178.108 118.224C176.774 120.37 175.585 122.4 174.541 124.314C173.439 126.228 172.511 128.026 171.757 129.708C170.945 131.448 170.278 133.043 169.756 134.493C169.234 135.943 168.828 137.248 168.538 138.408C168.248 139.626 168.103 140.699 168.103 141.627ZM195.334 96.561C196.726 97.605 198.147 98.388 199.597 98.91C201.047 99.432 202.555 99.693 204.121 99.693C206.557 99.693 208.877 99.084 211.081 97.866C213.285 96.648 215.286 95.053 217.084 93.081C218.94 91.051 220.535 88.818 221.869 86.382C223.203 83.946 224.218 81.481 224.914 78.987C225.668 76.435 226.045 74.057 226.045 71.853C226.045 70.171 225.697 68.924 225.001 68.112C224.363 67.242 223.377 66.807 222.043 66.807C221.057 66.807 219.984 67.097 218.824 67.677C217.722 68.257 216.446 69.243 214.996 70.635C213.546 71.969 211.864 73.796 209.95 76.116C208.094 78.378 205.948 81.191 203.512 84.555C201.134 87.919 198.408 91.921 195.334 96.561Z"/>
<path d="M222.199 106.479C221.097 106.479 220.372 106.131 220.024 105.435C219.618 104.797 219.531 104.072 219.763 103.26C219.937 102.39 220.372 101.636 221.068 100.998C221.764 100.302 222.663 99.954 223.765 99.954C226.143 99.954 228.985 99.287 232.291 97.953C235.539 96.619 239.193 94.618 243.253 91.95C243.949 91.486 244.587 91.399 245.167 91.689C245.747 91.979 246.182 92.472 246.472 93.168C246.82 93.864 246.936 94.589 246.82 95.343C246.704 96.097 246.327 96.706 245.689 97.17C242.267 99.432 239.106 101.259 236.206 102.651C233.248 103.985 230.609 104.942 228.289 105.522C225.911 106.16 223.881 106.479 222.199 106.479Z"/>
<path d="M243.34 92.472C244.326 91.834 245.312 91.196 246.298 90.558C247.284 89.862 248.27 89.166 249.256 88.47C251.866 86.556 254.215 84.584 256.303 82.554C258.391 80.524 260.044 78.523 261.262 76.551C262.538 74.579 263.176 72.752 263.176 71.07C263.176 69.736 262.886 68.692 262.306 67.938C261.726 67.184 260.856 66.807 259.696 66.807C257.898 66.807 256.303 67.532 254.911 68.982C253.519 70.374 252.33 72.143 251.344 74.289C250.416 76.435 249.72 78.697 249.256 81.075C248.792 83.453 248.56 85.599 248.56 87.513C248.56 89.137 248.763 90.674 249.169 92.124C249.575 93.574 250.184 94.85 250.996 95.952C251.808 97.054 252.823 97.924 254.041 98.562C255.317 99.2 256.796 99.519 258.478 99.519C260.276 99.519 262.016 99.142 263.698 98.388C265.438 97.576 267.091 96.532 268.657 95.256C270.281 93.922 279.172 83.105 280.564 81.597C281.26 80.785 282.072 80.495 283 80.727C283.928 80.959 284.682 81.394 285.262 82.032C285.842 82.67 286.161 83.337 286.219 84.033C286.335 84.729 286.045 85.512 285.349 86.382C283.145 89.166 273.471 100.737 271.093 102.303C268.773 103.811 266.395 104.884 263.959 105.522C261.581 106.16 259.203 106.479 256.825 106.479C254.679 106.479 252.765 106.131 251.083 105.435C249.401 104.797 247.922 103.898 246.646 102.738C245.37 101.578 244.297 100.215 243.427 98.649C242.615 97.025 241.977 95.285 241.513 93.429C241.107 91.573 240.904 89.659 240.904 87.687C240.904 85.541 241.136 83.221 241.6 80.727C242.064 78.233 242.789 75.768 243.775 73.332C244.819 70.838 246.153 68.576 247.777 66.546C249.401 64.516 251.344 62.892 253.606 61.674C255.868 60.456 258.507 59.847 261.523 59.847C263.263 59.847 264.858 60.224 266.308 60.978C267.758 61.674 268.889 62.718 269.701 64.11C270.571 65.444 271.006 67.068 271.006 68.982C271.006 71.592 270.165 74.347 268.483 77.247C266.859 80.089 264.684 82.931 261.958 85.773C259.232 88.557 256.187 91.167 252.823 93.603C251.721 94.357 250.59 95.14 249.43 95.952C248.27 96.764 247.081 97.518 245.863 98.214L243.34 92.472Z"/>
</mask>
<path d="M108.792 106.479C106.066 106.479 103.833 105.87 102.093 104.652C100.411 103.376 99.193 101.723 98.439 99.693C97.685 97.605 97.366 95.285 97.482 92.733C97.598 90.181 98.091 87.6 98.961 84.99L104.442 68.46H97.83C97.192 68.46 96.757 68.17 96.525 67.59C96.293 67.01 96.322 66.14 96.612 64.98C96.96 63.82 97.424 62.95 98.004 62.37C98.584 61.79 99.193 61.5 99.831 61.5H106.791L112.446 44.274C112.794 43.114 113.229 42.36 113.751 42.012C114.331 41.664 115.201 41.49 116.361 41.49C118.217 41.49 119.377 41.78 119.841 42.36C120.305 42.882 120.334 43.723 119.928 44.883L114.36 61.5H125.322C125.96 61.5 126.395 61.79 126.627 62.37C126.917 62.892 126.888 63.762 126.54 64.98C126.25 66.082 125.815 66.952 125.235 67.59C124.655 68.17 124.046 68.46 123.408 68.46H112.098L106.356 85.773C105.544 88.209 105.08 90.326 104.964 92.124C104.906 93.922 105.08 95.401 105.486 96.561C105.95 97.721 106.617 98.591 107.487 99.171C108.357 99.693 109.343 99.954 110.445 99.954C111.257 99.954 111.866 100.302 112.272 100.998C112.678 101.636 112.823 102.39 112.707 103.26C112.591 104.072 112.214 104.797 111.576 105.435C110.938 106.131 110.01 106.479 108.792 106.479Z" fill="#FFD000"/>
<path d="M109.116 106.479C108.304 106.479 107.695 106.131 107.289 105.435C106.883 104.797 106.738 104.072 106.854 103.26C106.912 102.39 107.26 101.636 107.898 100.998C108.536 100.302 109.464 99.954 110.682 99.954C112.074 99.954 113.669 99.258 115.467 97.866C117.207 96.474 119.266 94.299 121.644 91.341C124.022 88.325 126.835 84.41 130.083 79.596C133.331 74.724 137.13 68.837 141.48 61.935C142.002 61.123 142.669 60.775 143.481 60.891C144.351 61.007 145.047 61.384 145.569 62.022C146.091 62.66 146.12 63.356 145.656 64.11C140.726 72.462 136.463 79.393 132.867 84.903C129.329 90.355 126.226 94.676 123.558 97.866C120.89 100.998 118.425 103.231 116.163 104.565C113.843 105.841 111.494 106.479 109.116 106.479Z" fill="#FFD000"/>
<path d="M135.475 150.153C132.401 150.153 129.878 149.283 127.906 147.543C125.992 145.861 125.035 143.657 125.035 140.931C125.035 138.901 125.412 136.871 126.166 134.841C126.978 132.869 128.138 130.868 129.646 128.838C131.154 126.808 133.039 124.72 135.301 122.574C137.621 120.486 140.289 118.282 143.305 115.962C144.813 114.86 146.234 113.816 147.568 112.83C148.96 111.844 150.352 110.858 151.744 109.872C153.136 108.944 154.586 107.987 156.094 107.001L162.097 88.47C160.299 91.312 158.443 93.835 156.529 96.039C154.673 98.243 152.759 100.128 150.787 101.694C148.815 103.202 146.843 104.333 144.871 105.087C142.899 105.899 140.898 106.305 138.868 106.305C136.2 106.305 134.112 105.667 132.604 104.391C131.154 103.057 130.371 101.114 130.255 98.562C130.139 95.952 130.69 92.791 131.908 89.079L140.608 62.979C141.014 61.819 141.478 61.065 142 60.717C142.58 60.369 143.421 60.195 144.523 60.195C146.321 60.195 147.452 60.485 147.916 61.065C148.438 61.587 148.496 62.428 148.09 63.588L138.868 91.08C138.346 92.53 137.998 93.893 137.824 95.169C137.708 96.445 137.911 97.46 138.433 98.214C139.013 98.968 140.086 99.345 141.652 99.345C143.682 99.345 145.886 98.475 148.264 96.735C150.642 94.995 153.078 92.559 155.572 89.427C158.124 86.295 160.618 82.612 163.054 78.378C165.49 74.086 167.752 69.417 169.84 64.371L170.275 62.979C170.681 61.819 171.145 61.065 171.667 60.717C172.247 60.369 173.088 60.195 174.19 60.195C175.988 60.195 177.119 60.485 177.583 61.065C178.105 61.587 178.163 62.428 177.757 63.588L157.225 126.75C155.891 130.926 154.47 134.493 152.962 137.451C151.512 140.409 149.946 142.816 148.264 144.672C146.582 146.586 144.668 147.978 142.522 148.848C140.434 149.718 138.085 150.153 135.475 150.153ZM136.78 143.454C138.52 143.454 140.144 142.874 141.652 141.714C143.16 140.554 144.581 138.727 145.915 136.233C147.249 133.739 148.554 130.462 149.83 126.402L153.049 116.571C152.237 117.093 151.425 117.644 150.613 118.224C149.801 118.804 148.989 119.384 148.177 119.964C147.365 120.544 146.553 121.153 145.741 121.791C143.421 123.705 141.42 125.474 139.738 127.098C138.114 128.78 136.78 130.346 135.736 131.796C134.75 133.246 133.996 134.609 133.474 135.885C133.01 137.219 132.778 138.495 132.778 139.713C132.778 140.409 132.923 141.047 133.213 141.627C133.503 142.207 133.938 142.642 134.518 142.932C135.156 143.28 135.91 143.454 136.78 143.454Z" fill="#FFD000"/>
<path d="M161.578 110.655C160.824 111.061 160.157 111.061 159.577 110.655C158.939 110.307 158.504 109.756 158.272 109.002C158.04 108.248 158.04 107.465 158.272 106.653C158.446 105.841 158.939 105.232 159.751 104.826C163.347 102.796 166.653 100.708 169.669 98.562C172.685 96.358 175.498 94.038 178.108 91.602C180.718 89.166 183.154 86.556 185.416 83.772C187.736 80.988 189.969 78.001 192.115 74.811C194.319 71.563 196.494 68.083 198.64 64.371C199.22 63.501 199.887 63.066 200.641 63.066C201.395 63.066 201.975 63.414 202.381 64.11C202.787 64.806 202.7 65.676 202.12 66.72C199.858 71.012 197.596 74.956 195.334 78.552C193.072 82.148 190.723 85.454 188.287 88.47C185.909 91.486 183.386 94.27 180.718 96.822C177.992 99.374 175.063 101.81 171.931 104.13C168.799 106.392 165.348 108.567 161.578 110.655Z" fill="#FFD000"/>
<path d="M222.13 106.479C220.622 106.479 219.259 106.392 218.041 106.218C216.881 106.044 215.75 105.87 214.648 105.696C213.546 105.58 212.357 105.522 211.081 105.522C209.863 105.58 208.413 105.841 206.731 106.305L207.166 103.26C208.384 102.738 209.747 102.274 211.255 101.868C212.821 101.462 214.387 101.114 215.953 100.824C217.519 100.534 218.969 100.331 220.303 100.215C221.695 100.041 222.855 99.954 223.783 99.954C224.305 99.954 224.653 100.302 224.827 100.998C225.001 101.636 225.001 102.39 224.827 103.26C224.653 104.072 224.334 104.797 223.87 105.435C223.406 106.131 222.826 106.479 222.13 106.479ZM168.712 150.153C167.61 150.153 166.45 149.892 165.232 149.37C163.956 148.848 162.883 147.949 162.013 146.673C161.143 145.397 160.708 143.628 160.708 141.366C160.708 139.916 160.969 138.292 161.491 136.494C162.013 134.754 162.796 132.811 163.84 130.665C164.826 128.519 166.073 126.228 167.581 123.792C169.089 121.356 170.829 118.746 172.801 115.962C174.715 113.236 176.832 110.365 179.152 107.349C181.472 104.391 183.966 101.317 186.634 98.127L198.118 62.979C198.524 61.819 198.988 61.065 199.51 60.717C200.09 60.369 200.931 60.195 202.033 60.195C203.831 60.195 204.962 60.485 205.426 61.065C205.948 61.587 206.006 62.428 205.6 63.588L200.206 80.031C203.628 75.217 206.731 71.331 209.515 68.373C212.299 65.415 214.909 63.269 217.345 61.935C219.781 60.543 222.159 59.847 224.479 59.847C227.379 59.847 229.67 60.804 231.352 62.718C233.034 64.632 233.875 67.329 233.875 70.809C233.875 74.057 233.353 77.363 232.309 80.727C231.265 84.091 229.786 87.31 227.872 90.384C226.016 93.458 223.812 96.213 221.26 98.649C218.766 101.027 216.011 102.941 212.995 104.391C209.979 105.783 206.847 106.479 203.599 106.479C201.453 106.479 199.481 106.131 197.683 105.435C195.943 104.739 194.319 103.84 192.811 102.738L182.98 133.014C181.53 137.48 180.109 140.96 178.717 143.454C177.267 145.948 175.73 147.688 174.106 148.674C172.482 149.66 170.684 150.153 168.712 150.153ZM168.103 141.627C168.103 142.323 168.248 142.816 168.538 143.106C168.77 143.454 169.147 143.628 169.669 143.628C170.075 143.628 170.481 143.454 170.887 143.106C171.293 142.816 171.728 142.236 172.192 141.366C172.598 140.496 173.12 139.22 173.758 137.538C174.396 135.914 175.15 133.739 176.02 131.013L182.284 111.699C180.776 113.961 179.384 116.136 178.108 118.224C176.774 120.37 175.585 122.4 174.541 124.314C173.439 126.228 172.511 128.026 171.757 129.708C170.945 131.448 170.278 133.043 169.756 134.493C169.234 135.943 168.828 137.248 168.538 138.408C168.248 139.626 168.103 140.699 168.103 141.627ZM195.334 96.561C196.726 97.605 198.147 98.388 199.597 98.91C201.047 99.432 202.555 99.693 204.121 99.693C206.557 99.693 208.877 99.084 211.081 97.866C213.285 96.648 215.286 95.053 217.084 93.081C218.94 91.051 220.535 88.818 221.869 86.382C223.203 83.946 224.218 81.481 224.914 78.987C225.668 76.435 226.045 74.057 226.045 71.853C226.045 70.171 225.697 68.924 225.001 68.112C224.363 67.242 223.377 66.807 222.043 66.807C221.057 66.807 219.984 67.097 218.824 67.677C217.722 68.257 216.446 69.243 214.996 70.635C213.546 71.969 211.864 73.796 209.95 76.116C208.094 78.378 205.948 81.191 203.512 84.555C201.134 87.919 198.408 91.921 195.334 96.561Z" fill="#FFD000"/>
<path d="M222.199 106.479C221.097 106.479 220.372 106.131 220.024 105.435C219.618 104.797 219.531 104.072 219.763 103.26C219.937 102.39 220.372 101.636 221.068 100.998C221.764 100.302 222.663 99.954 223.765 99.954C226.143 99.954 228.985 99.287 232.291 97.953C235.539 96.619 239.193 94.618 243.253 91.95C243.949 91.486 244.587 91.399 245.167 91.689C245.747 91.979 246.182 92.472 246.472 93.168C246.82 93.864 246.936 94.589 246.82 95.343C246.704 96.097 246.327 96.706 245.689 97.17C242.267 99.432 239.106 101.259 236.206 102.651C233.248 103.985 230.609 104.942 228.289 105.522C225.911 106.16 223.881 106.479 222.199 106.479Z" fill="#FFD000"/>
<path d="M243.34 92.472C244.326 91.834 245.312 91.196 246.298 90.558C247.284 89.862 248.27 89.166 249.256 88.47C251.866 86.556 254.215 84.584 256.303 82.554C258.391 80.524 260.044 78.523 261.262 76.551C262.538 74.579 263.176 72.752 263.176 71.07C263.176 69.736 262.886 68.692 262.306 67.938C261.726 67.184 260.856 66.807 259.696 66.807C257.898 66.807 256.303 67.532 254.911 68.982C253.519 70.374 252.33 72.143 251.344 74.289C250.416 76.435 249.72 78.697 249.256 81.075C248.792 83.453 248.56 85.599 248.56 87.513C248.56 89.137 248.763 90.674 249.169 92.124C249.575 93.574 250.184 94.85 250.996 95.952C251.808 97.054 252.823 97.924 254.041 98.562C255.317 99.2 256.796 99.519 258.478 99.519C260.276 99.519 262.016 99.142 263.698 98.388C265.438 97.576 267.091 96.532 268.657 95.256C270.281 93.922 279.172 83.105 280.564 81.597C281.26 80.785 282.072 80.495 283 80.727C283.928 80.959 284.682 81.394 285.262 82.032C285.842 82.67 286.161 83.337 286.219 84.033C286.335 84.729 286.045 85.512 285.349 86.382C283.145 89.166 273.471 100.737 271.093 102.303C268.773 103.811 266.395 104.884 263.959 105.522C261.581 106.16 259.203 106.479 256.825 106.479C254.679 106.479 252.765 106.131 251.083 105.435C249.401 104.797 247.922 103.898 246.646 102.738C245.37 101.578 244.297 100.215 243.427 98.649C242.615 97.025 241.977 95.285 241.513 93.429C241.107 91.573 240.904 89.659 240.904 87.687C240.904 85.541 241.136 83.221 241.6 80.727C242.064 78.233 242.789 75.768 243.775 73.332C244.819 70.838 246.153 68.576 247.777 66.546C249.401 64.516 251.344 62.892 253.606 61.674C255.868 60.456 258.507 59.847 261.523 59.847C263.263 59.847 264.858 60.224 266.308 60.978C267.758 61.674 268.889 62.718 269.701 64.11C270.571 65.444 271.006 67.068 271.006 68.982C271.006 71.592 270.165 74.347 268.483 77.247C266.859 80.089 264.684 82.931 261.958 85.773C259.232 88.557 256.187 91.167 252.823 93.603C251.721 94.357 250.59 95.14 249.43 95.952C248.27 96.764 247.081 97.518 245.863 98.214L243.34 92.472Z" fill="#FFD000"/>
<path d="M108.792 106.479C106.066 106.479 103.833 105.87 102.093 104.652C100.411 103.376 99.193 101.723 98.439 99.693C97.685 97.605 97.366 95.285 97.482 92.733C97.598 90.181 98.091 87.6 98.961 84.99L104.442 68.46H97.83C97.192 68.46 96.757 68.17 96.525 67.59C96.293 67.01 96.322 66.14 96.612 64.98C96.96 63.82 97.424 62.95 98.004 62.37C98.584 61.79 99.193 61.5 99.831 61.5H106.791L112.446 44.274C112.794 43.114 113.229 42.36 113.751 42.012C114.331 41.664 115.201 41.49 116.361 41.49C118.217 41.49 119.377 41.78 119.841 42.36C120.305 42.882 120.334 43.723 119.928 44.883L114.36 61.5H125.322C125.96 61.5 126.395 61.79 126.627 62.37C126.917 62.892 126.888 63.762 126.54 64.98C126.25 66.082 125.815 66.952 125.235 67.59C124.655 68.17 124.046 68.46 123.408 68.46H112.098L106.356 85.773C105.544 88.209 105.08 90.326 104.964 92.124C104.906 93.922 105.08 95.401 105.486 96.561C105.95 97.721 106.617 98.591 107.487 99.171C108.357 99.693 109.343 99.954 110.445 99.954C111.257 99.954 111.866 100.302 112.272 100.998C112.678 101.636 112.823 102.39 112.707 103.26C112.591 104.072 112.214 104.797 111.576 105.435C110.938 106.131 110.01 106.479 108.792 106.479Z" stroke="#1E1E1E" stroke-width="4" mask="url(#path-4-outside-2_1_12)"/>
<path d="M109.116 106.479C108.304 106.479 107.695 106.131 107.289 105.435C106.883 104.797 106.738 104.072 106.854 103.26C106.912 102.39 107.26 101.636 107.898 100.998C108.536 100.302 109.464 99.954 110.682 99.954C112.074 99.954 113.669 99.258 115.467 97.866C117.207 96.474 119.266 94.299 121.644 91.341C124.022 88.325 126.835 84.41 130.083 79.596C133.331 74.724 137.13 68.837 141.48 61.935C142.002 61.123 142.669 60.775 143.481 60.891C144.351 61.007 145.047 61.384 145.569 62.022C146.091 62.66 146.12 63.356 145.656 64.11C140.726 72.462 136.463 79.393 132.867 84.903C129.329 90.355 126.226 94.676 123.558 97.866C120.89 100.998 118.425 103.231 116.163 104.565C113.843 105.841 111.494 106.479 109.116 106.479Z" stroke="#1E1E1E" stroke-width="4" mask="url(#path-4-outside-2_1_12)"/>
<path d="M135.475 150.153C132.401 150.153 129.878 149.283 127.906 147.543C125.992 145.861 125.035 143.657 125.035 140.931C125.035 138.901 125.412 136.871 126.166 134.841C126.978 132.869 128.138 130.868 129.646 128.838C131.154 126.808 133.039 124.72 135.301 122.574C137.621 120.486 140.289 118.282 143.305 115.962C144.813 114.86 146.234 113.816 147.568 112.83C148.96 111.844 150.352 110.858 151.744 109.872C153.136 108.944 154.586 107.987 156.094 107.001L162.097 88.47C160.299 91.312 158.443 93.835 156.529 96.039C154.673 98.243 152.759 100.128 150.787 101.694C148.815 103.202 146.843 104.333 144.871 105.087C142.899 105.899 140.898 106.305 138.868 106.305C136.2 106.305 134.112 105.667 132.604 104.391C131.154 103.057 130.371 101.114 130.255 98.562C130.139 95.952 130.69 92.791 131.908 89.079L140.608 62.979C141.014 61.819 141.478 61.065 142 60.717C142.58 60.369 143.421 60.195 144.523 60.195C146.321 60.195 147.452 60.485 147.916 61.065C148.438 61.587 148.496 62.428 148.09 63.588L138.868 91.08C138.346 92.53 137.998 93.893 137.824 95.169C137.708 96.445 137.911 97.46 138.433 98.214C139.013 98.968 140.086 99.345 141.652 99.345C143.682 99.345 145.886 98.475 148.264 96.735C150.642 94.995 153.078 92.559 155.572 89.427C158.124 86.295 160.618 82.612 163.054 78.378C165.49 74.086 167.752 69.417 169.84 64.371L170.275 62.979C170.681 61.819 171.145 61.065 171.667 60.717C172.247 60.369 173.088 60.195 174.19 60.195C175.988 60.195 177.119 60.485 177.583 61.065C178.105 61.587 178.163 62.428 177.757 63.588L157.225 126.75C155.891 130.926 154.47 134.493 152.962 137.451C151.512 140.409 149.946 142.816 148.264 144.672C146.582 146.586 144.668 147.978 142.522 148.848C140.434 149.718 138.085 150.153 135.475 150.153ZM136.78 143.454C138.52 143.454 140.144 142.874 141.652 141.714C143.16 140.554 144.581 138.727 145.915 136.233C147.249 133.739 148.554 130.462 149.83 126.402L153.049 116.571C152.237 117.093 151.425 117.644 150.613 118.224C149.801 118.804 148.989 119.384 148.177 119.964C147.365 120.544 146.553 121.153 145.741 121.791C143.421 123.705 141.42 125.474 139.738 127.098C138.114 128.78 136.78 130.346 135.736 131.796C134.75 133.246 133.996 134.609 133.474 135.885C133.01 137.219 132.778 138.495 132.778 139.713C132.778 140.409 132.923 141.047 133.213 141.627C133.503 142.207 133.938 142.642 134.518 142.932C135.156 143.28 135.91 143.454 136.78 143.454Z" stroke="#1E1E1E" stroke-width="4" mask="url(#path-4-outside-2_1_12)"/>
<path d="M161.578 110.655C160.824 111.061 160.157 111.061 159.577 110.655C158.939 110.307 158.504 109.756 158.272 109.002C158.04 108.248 158.04 107.465 158.272 106.653C158.446 105.841 158.939 105.232 159.751 104.826C163.347 102.796 166.653 100.708 169.669 98.562C172.685 96.358 175.498 94.038 178.108 91.602C180.718 89.166 183.154 86.556 185.416 83.772C187.736 80.988 189.969 78.001 192.115 74.811C194.319 71.563 196.494 68.083 198.64 64.371C199.22 63.501 199.887 63.066 200.641 63.066C201.395 63.066 201.975 63.414 202.381 64.11C202.787 64.806 202.7 65.676 202.12 66.72C199.858 71.012 197.596 74.956 195.334 78.552C193.072 82.148 190.723 85.454 188.287 88.47C185.909 91.486 183.386 94.27 180.718 96.822C177.992 99.374 175.063 101.81 171.931 104.13C168.799 106.392 165.348 108.567 161.578 110.655Z" stroke="#1E1E1E" stroke-width="4" mask="url(#path-4-outside-2_1_12)"/>
<path d="M222.13 106.479C220.622 106.479 219.259 106.392 218.041 106.218C216.881 106.044 215.75 105.87 214.648 105.696C213.546 105.58 212.357 105.522 211.081 105.522C209.863 105.58 208.413 105.841 206.731 106.305L207.166 103.26C208.384 102.738 209.747 102.274 211.255 101.868C212.821 101.462 214.387 101.114 215.953 100.824C217.519 100.534 218.969 100.331 220.303 100.215C221.695 100.041 222.855 99.954 223.783 99.954C224.305 99.954 224.653 100.302 224.827 100.998C225.001 101.636 225.001 102.39 224.827 103.26C224.653 104.072 224.334 104.797 223.87 105.435C223.406 106.131 222.826 106.479 222.13 106.479ZM168.712 150.153C167.61 150.153 166.45 149.892 165.232 149.37C163.956 148.848 162.883 147.949 162.013 146.673C161.143 145.397 160.708 143.628 160.708 141.366C160.708 139.916 160.969 138.292 161.491 136.494C162.013 134.754 162.796 132.811 163.84 130.665C164.826 128.519 166.073 126.228 167.581 123.792C169.089 121.356 170.829 118.746 172.801 115.962C174.715 113.236 176.832 110.365 179.152 107.349C181.472 104.391 183.966 101.317 186.634 98.127L198.118 62.979C198.524 61.819 198.988 61.065 199.51 60.717C200.09 60.369 200.931 60.195 202.033 60.195C203.831 60.195 204.962 60.485 205.426 61.065C205.948 61.587 206.006 62.428 205.6 63.588L200.206 80.031C203.628 75.217 206.731 71.331 209.515 68.373C212.299 65.415 214.909 63.269 217.345 61.935C219.781 60.543 222.159 59.847 224.479 59.847C227.379 59.847 229.67 60.804 231.352 62.718C233.034 64.632 233.875 67.329 233.875 70.809C233.875 74.057 233.353 77.363 232.309 80.727C231.265 84.091 229.786 87.31 227.872 90.384C226.016 93.458 223.812 96.213 221.26 98.649C218.766 101.027 216.011 102.941 212.995 104.391C209.979 105.783 206.847 106.479 203.599 106.479C201.453 106.479 199.481 106.131 197.683 105.435C195.943 104.739 194.319 103.84 192.811 102.738L182.98 133.014C181.53 137.48 180.109 140.96 178.717 143.454C177.267 145.948 175.73 147.688 174.106 148.674C172.482 149.66 170.684 150.153 168.712 150.153ZM168.103 141.627C168.103 142.323 168.248 142.816 168.538 143.106C168.77 143.454 169.147 143.628 169.669 143.628C170.075 143.628 170.481 143.454 170.887 143.106C171.293 142.816 171.728 142.236 172.192 141.366C172.598 140.496 173.12 139.22 173.758 137.538C174.396 135.914 175.15 133.739 176.02 131.013L182.284 111.699C180.776 113.961 179.384 116.136 178.108 118.224C176.774 120.37 175.585 122.4 174.541 124.314C173.439 126.228 172.511 128.026 171.757 129.708C170.945 131.448 170.278 133.043 169.756 134.493C169.234 135.943 168.828 137.248 168.538 138.408C168.248 139.626 168.103 140.699 168.103 141.627ZM195.334 96.561C196.726 97.605 198.147 98.388 199.597 98.91C201.047 99.432 202.555 99.693 204.121 99.693C206.557 99.693 208.877 99.084 211.081 97.866C213.285 96.648 215.286 95.053 217.084 93.081C218.94 91.051 220.535 88.818 221.869 86.382C223.203 83.946 224.218 81.481 224.914 78.987C225.668 76.435 226.045 74.057 226.045 71.853C226.045 70.171 225.697 68.924 225.001 68.112C224.363 67.242 223.377 66.807 222.043 66.807C221.057 66.807 219.984 67.097 218.824 67.677C217.722 68.257 216.446 69.243 214.996 70.635C213.546 71.969 211.864 73.796 209.95 76.116C208.094 78.378 205.948 81.191 203.512 84.555C201.134 87.919 198.408 91.921 195.334 96.561Z" stroke="#1E1E1E" stroke-width="4" mask="url(#path-4-outside-2_1_12)"/>
<path d="M222.199 106.479C221.097 106.479 220.372 106.131 220.024 105.435C219.618 104.797 219.531 104.072 219.763 103.26C219.937 102.39 220.372 101.636 221.068 100.998C221.764 100.302 222.663 99.954 223.765 99.954C226.143 99.954 228.985 99.287 232.291 97.953C235.539 96.619 239.193 94.618 243.253 91.95C243.949 91.486 244.587 91.399 245.167 91.689C245.747 91.979 246.182 92.472 246.472 93.168C246.82 93.864 246.936 94.589 246.82 95.343C246.704 96.097 246.327 96.706 245.689 97.17C242.267 99.432 239.106 101.259 236.206 102.651C233.248 103.985 230.609 104.942 228.289 105.522C225.911 106.16 223.881 106.479 222.199 106.479Z" stroke="#1E1E1E" stroke-width="4" mask="url(#path-4-outside-2_1_12)"/>
<path d="M243.34 92.472C244.326 91.834 245.312 91.196 246.298 90.558C247.284 89.862 248.27 89.166 249.256 88.47C251.866 86.556 254.215 84.584 256.303 82.554C258.391 80.524 260.044 78.523 261.262 76.551C262.538 74.579 263.176 72.752 263.176 71.07C263.176 69.736 262.886 68.692 262.306 67.938C261.726 67.184 260.856 66.807 259.696 66.807C257.898 66.807 256.303 67.532 254.911 68.982C253.519 70.374 252.33 72.143 251.344 74.289C250.416 76.435 249.72 78.697 249.256 81.075C248.792 83.453 248.56 85.599 248.56 87.513C248.56 89.137 248.763 90.674 249.169 92.124C249.575 93.574 250.184 94.85 250.996 95.952C251.808 97.054 252.823 97.924 254.041 98.562C255.317 99.2 256.796 99.519 258.478 99.519C260.276 99.519 262.016 99.142 263.698 98.388C265.438 97.576 267.091 96.532 268.657 95.256C270.281 93.922 279.172 83.105 280.564 81.597C281.26 80.785 282.072 80.495 283 80.727C283.928 80.959 284.682 81.394 285.262 82.032C285.842 82.67 286.161 83.337 286.219 84.033C286.335 84.729 286.045 85.512 285.349 86.382C283.145 89.166 273.471 100.737 271.093 102.303C268.773 103.811 266.395 104.884 263.959 105.522C261.581 106.16 259.203 106.479 256.825 106.479C254.679 106.479 252.765 106.131 251.083 105.435C249.401 104.797 247.922 103.898 246.646 102.738C245.37 101.578 244.297 100.215 243.427 98.649C242.615 97.025 241.977 95.285 241.513 93.429C241.107 91.573 240.904 89.659 240.904 87.687C240.904 85.541 241.136 83.221 241.6 80.727C242.064 78.233 242.789 75.768 243.775 73.332C244.819 70.838 246.153 68.576 247.777 66.546C249.401 64.516 251.344 62.892 253.606 61.674C255.868 60.456 258.507 59.847 261.523 59.847C263.263 59.847 264.858 60.224 266.308 60.978C267.758 61.674 268.889 62.718 269.701 64.11C270.571 65.444 271.006 67.068 271.006 68.982C271.006 71.592 270.165 74.347 268.483 77.247C266.859 80.089 264.684 82.931 261.958 85.773C259.232 88.557 256.187 91.167 252.823 93.603C251.721 94.357 250.59 95.14 249.43 95.952C248.27 96.764 247.081 97.518 245.863 98.214L243.34 92.472Z" stroke="#1E1E1E" stroke-width="4" mask="url(#path-4-outside-2_1_12)"/>
<rect x="277.5" y="14.5" width="10" height="98" fill="white" stroke="#1E1E1E"/>
</svg>
